<svg xmlns="http://www.w3.org/2000/svg" xmlns:xlink="http://www.w3.org/1999/xlink" width="100" zoomAndPan="magnify" viewBox="0 0 75 74.999997" height="100" preserveAspectRatio="xMidYMid meet" version="1.0"><defs><g/><clipPath id="62b2f9d4ee"><path d="M 24.121094 63.347656 L 34.203125 63.347656 L 34.203125 71.828125 L 24.121094 71.828125 Z M 24.121094 63.347656 " clip-rule="nonzero"/></clipPath><clipPath id="ba33815945"><path d="M 40.871094 57.089844 L 50.648438 57.089844 L 50.648438 65.941406 L 40.871094 65.941406 Z M 40.871094 57.089844 " clip-rule="nonzero"/></clipPath><clipPath id="6f9b9a256f"><path d="M 24.121094 61 L 38 61 L 38 73.105469 L 24.121094 73.105469 Z M 24.121094 61 " clip-rule="nonzero"/></clipPath><clipPath id="9ee4a42fd6"><path d="M 37 55.105469 L 51.121094 55.105469 L 51.121094 67 L 37 67 Z M 37 55.105469 " clip-rule="nonzero"/></clipPath></defs><g clip-path="url(#62b2f9d4ee)"><path fill="#ffffff" d="M 24.121094 63.347656 L 34.316406 63.347656 L 34.316406 71.785156 L 24.121094 71.785156 Z M 24.121094 63.347656 " fill-opacity="1" fill-rule="nonzero"/></g><g clip-path="url(#ba33815945)"><path fill="#ffffff" d="M 40.871094 57.089844 L 50.714844 57.089844 L 50.714844 65.878906 L 40.871094 65.878906 Z M 40.871094 57.089844 " fill-opacity="1" fill-rule="nonzero"/></g><g clip-path="url(#6f9b9a256f)"><path fill="#0652e9" d="M 33.210938 69.65625 L 33.210938 71.285156 L 25.769531 67.859375 L 25.769531 66.535156 L 33.210938 63.109375 L 33.210938 64.738281 L 27.582031 67.183594 L 27.582031 67.210938 Z M 37.632812 61.296875 L 25.183594 61.296875 C 24.597656 61.296875 24.121094 61.769531 24.121094 62.351562 L 24.121094 72.042969 C 24.121094 72.625 24.597656 73.097656 25.183594 73.097656 L 34.175781 73.097656 L 37.632812 61.296875 " fill-opacity="1" fill-rule="nonzero"/></g><g clip-path="url(#9ee4a42fd6)"><path fill="#62e1e9" d="M 49.472656 61.71875 L 42.03125 65.097656 L 42.03125 63.46875 L 47.785156 61.027344 L 47.785156 60.996094 L 42.03125 58.550781 L 42.03125 56.921875 L 49.472656 60.304688 Z M 41.085938 55.113281 L 37.632812 66.910156 L 50.058594 66.910156 C 50.644531 66.910156 51.121094 66.4375 51.121094 65.855469 L 51.121094 56.167969 C 51.121094 55.582031 50.644531 55.113281 50.058594 55.113281 L 41.085938 55.113281 " fill-opacity="1" fill-rule="nonzero"/></g><g fill="#ffffff" fill-opacity="1"><g transform="translate(53.421889, 65.67708)"><g><path d="M 2.394531 0.0546875 C 3.226562 0.0546875 3.953125 -0.421875 4.3125 -1.121094 L 3.386719 -1.589844 C 3.207031 -1.226562 2.84375 -0.992188 2.394531 -0.992188 C 1.757812 -0.992188 1.28125 -1.464844 1.28125 -2.101562 C 1.28125 -2.738281 1.757812 -3.207031 2.394531 -3.207031 C 2.84375 -3.207031 3.207031 -2.976562 3.386719 -2.609375 L 4.3125 -3.078125 C 3.953125 -3.78125 3.226562 -4.257812 2.394531 -4.257812 C 1.195312 -4.257812 0.238281 -3.289062 0.238281 -2.101562 C 0.238281 -0.910156 1.195312 0.0546875 2.394531 0.0546875 Z M 2.394531 0.0546875 "/></g></g></g><g fill="#ffffff" fill-opacity="1"><g transform="translate(58.148366, 65.67708)"><g><path d="M 2.394531 0.0546875 C 3.585938 0.0546875 4.550781 -0.910156 4.550781 -2.101562 C 4.550781 -3.289062 3.585938 -4.257812 2.394531 -4.257812 C 1.195312 -4.257812 0.238281 -3.289062 0.238281 -2.101562 C 0.238281 -0.910156 1.195312 0.0546875 2.394531 0.0546875 Z M 2.394531 -0.992188 C 1.757812 -0.992188 1.28125 -1.464844 1.28125 -2.101562 C 1.28125 -2.738281 1.757812 -3.207031 2.394531 -3.207031 C 3.023438 -3.207031 3.5 -2.738281 3.5 -2.101562 C 3.5 -1.464844 3.023438 -0.992188 2.394531 -0.992188 Z M 2.394531 -0.992188 "/></g></g></g><g fill="#ffffff" fill-opacity="1"><g transform="translate(63.175848, 65.67708)"><g><path d="M 0.386719 0 L 1.839844 0 C 2.996094 0 3.941406 -0.9375 3.941406 -2.101562 C 3.941406 -3.261719 2.996094 -4.199219 1.839844 -4.199219 L 0.386719 -4.199219 Z M 1.457031 -0.929688 L 1.457031 -3.269531 L 1.839844 -3.269531 C 2.421875 -3.269531 2.878906 -2.757812 2.878906 -2.101562 C 2.878906 -1.441406 2.421875 -0.929688 1.839844 -0.929688 Z M 1.457031 -0.929688 "/></g></g></g><g fill="#ffffff" fill-opacity="1"><g transform="translate(67.60132, 65.67708)"><g><path d="M 3.023438 -3.269531 L 3.023438 -4.199219 L 0.421875 -4.199219 L 0.421875 0 L 3.023438 0 L 3.023438 -0.929688 L 1.492188 -0.929688 L 1.492188 -1.636719 L 2.785156 -1.636719 L 2.785156 -2.5625 L 1.492188 -2.5625 L 1.492188 -3.269531 Z M 3.023438 -3.269531 "/></g></g></g><g fill="#ffffff" fill-opacity="1"><g transform="translate(46.800131, 73.226645)"><g><path d="M 1.757812 0.0546875 C 2.5625 0.0546875 3.253906 -0.414062 3.253906 -1.21875 C 3.253906 -2.8125 1.351562 -2.414062 1.351562 -3.050781 C 1.351562 -3.234375 1.492188 -3.316406 1.660156 -3.316406 C 1.867188 -3.316406 2.101562 -3.191406 2.324219 -2.953125 L 3.023438 -3.632812 C 2.695312 -4.019531 2.199219 -4.257812 1.671875 -4.257812 C 1.007812 -4.257812 0.273438 -3.871094 0.273438 -2.976562 C 0.273438 -1.519531 2.183594 -1.867188 2.183594 -1.230469 C 2.183594 -1.0625 2.042969 -0.945312 1.769531 -0.945312 C 1.40625 -0.945312 1.113281 -1.140625 0.964844 -1.457031 L 0.0898438 -0.910156 C 0.371094 -0.378906 0.988281 0.0546875 1.757812 0.0546875 Z M 1.757812 0.0546875 "/></g></g></g><g fill="#ffffff" fill-opacity="1"><g transform="translate(50.455592, 73.226645)"><g><path d="M 3.402344 -4.199219 L 3.402344 -1.632812 L 1.503906 -4.199219 L 0.386719 -4.199219 L 0.386719 0 L 1.457031 0 L 1.457031 -2.574219 L 3.347656 0 L 4.472656 0 L 4.472656 -4.199219 Z M 3.402344 -4.199219 "/></g></g></g><g fill="#ffffff" fill-opacity="1"><g transform="translate(55.560078, 73.226645)"><g><path d="M 0.421875 0 L 1.492188 0 L 1.492188 -4.199219 L 0.421875 -4.199219 Z M 0.421875 0 "/></g></g></g><g fill="#ffffff" fill-opacity="1"><g transform="translate(57.710514, 73.226645)"><g><path d="M 2.253906 -4.199219 L 0.386719 -4.199219 L 0.386719 0 L 1.457031 0 L 1.457031 -1.644531 L 2.253906 -1.644531 C 2.980469 -1.644531 3.542969 -2.175781 3.542969 -2.90625 C 3.542969 -3.617188 2.980469 -4.199219 2.253906 -4.199219 Z M 2.078125 -2.511719 L 1.457031 -2.511719 L 1.457031 -3.269531 L 2.078125 -3.269531 C 2.332031 -3.269531 2.511719 -3.113281 2.511719 -2.898438 C 2.511719 -2.675781 2.332031 -2.511719 2.078125 -2.511719 Z M 2.078125 -2.511719 "/></g></g></g></svg>